<svg width="100" height="100" viewBox="0 0 100 100" fill="none" xmlns="http://www.w3.org/2000/svg">
<g clip-path="url(#clip0_7_19)">
<rect width="100" height="100" rx="50" fill="#FAFAFA"/>
<mask id="path-2-outside-1_7_19" maskUnits="userSpaceOnUse" x="16" y="11" width="66" height="77" fill="black">
<rect fill="white" x="16" y="11" width="66" height="77"/>
<path d="M63.6506 35.2188C63.84 32.5436 63.1297 30.4721 61.5199 29.0043C59.9337 27.5365 57.4242 26.8026 53.9915 26.8026C51.7188 26.8026 49.7775 27.0985 48.1676 27.6903C46.5578 28.2585 45.2912 29.0634 44.3679 30.1051C43.4446 31.1231 42.8646 32.3068 42.6278 33.6562C42.4148 34.7216 42.474 35.6686 42.8054 36.4972C43.1368 37.3258 43.7169 38.0597 44.5455 38.6989C45.3977 39.3381 46.4512 39.8944 47.706 40.3679C48.9844 40.8414 50.4167 41.2557 52.0028 41.6108L57.9688 43.0312C61.4252 43.8125 64.42 44.8542 66.9531 46.1562C69.5099 47.4347 71.5814 48.9853 73.1676 50.8082C74.7538 52.6075 75.8428 54.679 76.4347 57.0227C77.0265 59.3665 77.0739 61.9943 76.5767 64.9062C75.8191 69.4991 74.0081 73.4408 71.1435 76.7315C68.3026 80.0223 64.5857 82.5436 59.9929 84.2955C55.4238 86.0473 50.1089 86.9233 44.0483 86.9233C37.9877 86.9233 32.8385 86.0118 28.6009 84.1889C24.3868 82.3423 21.3329 79.5606 19.4389 75.8438C17.545 72.1269 17.036 67.4394 17.9119 61.7812H34.7088C34.4484 64.125 34.7443 66.0781 35.5966 67.6406C36.4725 69.2031 37.822 70.3868 39.6449 71.1918C41.4678 71.9967 43.6695 72.3991 46.25 72.3991C48.6174 72.3991 50.6889 72.0795 52.4645 71.4403C54.2637 70.8011 55.696 69.9134 56.7614 68.777C57.8504 67.6406 58.5133 66.3385 58.75 64.8707C58.9867 63.5213 58.7618 62.3494 58.0753 61.3551C57.4124 60.3608 56.276 59.4967 54.6662 58.7628C53.08 58.0289 50.9967 57.366 48.4162 56.7741L41.1364 54.9986C35.1231 53.5308 30.5658 51.187 27.4645 47.9673C24.3868 44.7476 23.2978 40.3797 24.1974 34.8636C24.955 30.3419 26.8253 26.3883 29.8082 23.0028C32.8149 19.6174 36.6146 16.9896 41.2074 15.1193C45.8239 13.2254 50.902 12.2784 56.4418 12.2784C62.0762 12.2784 66.8111 13.2372 70.6463 15.1548C74.5052 17.0488 77.2869 19.724 78.9915 23.1804C80.7197 26.6132 81.2169 30.6259 80.483 35.2188H63.6506Z"/>
</mask>
<path d="M63.6506 35.2188C63.84 32.5436 63.1297 30.4721 61.5199 29.0043C59.9337 27.5365 57.4242 26.8026 53.9915 26.8026C51.7188 26.8026 49.7775 27.0985 48.1676 27.6903C46.5578 28.2585 45.2912 29.0634 44.3679 30.1051C43.4446 31.1231 42.8646 32.3068 42.6278 33.6562C42.4148 34.7216 42.474 35.6686 42.8054 36.4972C43.1368 37.3258 43.7169 38.0597 44.5455 38.6989C45.3977 39.3381 46.4512 39.8944 47.706 40.3679C48.9844 40.8414 50.4167 41.2557 52.0028 41.6108L57.9688 43.0312C61.4252 43.8125 64.42 44.8542 66.9531 46.1562C69.5099 47.4347 71.5814 48.9853 73.1676 50.8082C74.7538 52.6075 75.8428 54.679 76.4347 57.0227C77.0265 59.3665 77.0739 61.9943 76.5767 64.9062C75.8191 69.4991 74.0081 73.4408 71.1435 76.7315C68.3026 80.0223 64.5857 82.5436 59.9929 84.2955C55.4238 86.0473 50.1089 86.9233 44.0483 86.9233C37.9877 86.9233 32.8385 86.0118 28.6009 84.1889C24.3868 82.3423 21.3329 79.5606 19.4389 75.8438C17.545 72.1269 17.036 67.4394 17.9119 61.7812H34.7088C34.4484 64.125 34.7443 66.0781 35.5966 67.6406C36.4725 69.2031 37.822 70.3868 39.6449 71.1918C41.4678 71.9967 43.6695 72.3991 46.25 72.3991C48.6174 72.3991 50.6889 72.0795 52.4645 71.4403C54.2637 70.8011 55.696 69.9134 56.7614 68.777C57.8504 67.6406 58.5133 66.3385 58.75 64.8707C58.9867 63.5213 58.7618 62.3494 58.0753 61.3551C57.4124 60.3608 56.276 59.4967 54.6662 58.7628C53.08 58.0289 50.9967 57.366 48.4162 56.7741L41.1364 54.9986C35.1231 53.5308 30.5658 51.187 27.4645 47.9673C24.3868 44.7476 23.2978 40.3797 24.1974 34.8636C24.955 30.3419 26.8253 26.3883 29.8082 23.0028C32.8149 19.6174 36.6146 16.9896 41.2074 15.1193C45.8239 13.2254 50.902 12.2784 56.4418 12.2784C62.0762 12.2784 66.8111 13.2372 70.6463 15.1548C74.5052 17.0488 77.2869 19.724 78.9915 23.1804C80.7197 26.6132 81.2169 30.6259 80.483 35.2188H63.6506Z" fill="#D52020"/>
<path d="M63.6506 35.2188L62.6531 35.1481L62.5773 36.2188H63.6506V35.2188ZM61.5199 29.0043L60.8407 29.7382L60.8461 29.7432L61.5199 29.0043ZM48.1676 27.6903L48.5005 28.6334L48.5127 28.6289L48.1676 27.6903ZM44.3679 30.1051L45.1087 30.777L45.1162 30.7684L44.3679 30.1051ZM42.6278 33.6562L43.6084 33.8524L43.6107 33.8407L43.6128 33.8291L42.6278 33.6562ZM42.8054 36.4972L43.7339 36.1258L43.7339 36.1258L42.8054 36.4972ZM44.5455 38.6989L43.9346 39.4907L43.9455 39.4989L44.5455 38.6989ZM47.706 40.3679L47.3529 41.3035L47.3587 41.3056L47.706 40.3679ZM52.0028 41.6108L52.2345 40.6379L52.2213 40.635L52.0028 41.6108ZM57.9688 43.0312L57.7371 44.0041L57.7483 44.0066L57.9688 43.0312ZM66.9531 46.1562L66.4959 47.0457L66.5059 47.0507L66.9531 46.1562ZM73.1676 50.8082L72.4132 51.4647L72.4175 51.4695L73.1676 50.8082ZM76.4347 57.0227L77.4042 56.7779L77.4042 56.7779L76.4347 57.0227ZM76.5767 64.9062L75.591 64.738L75.59 64.7435L76.5767 64.9062ZM71.1435 76.7315L70.3892 76.0749L70.3865 76.0781L71.1435 76.7315ZM59.9929 84.2955L59.6365 83.3611L59.6349 83.3617L59.9929 84.2955ZM28.6009 84.1889L28.1995 85.1049L28.2057 85.1075L28.6009 84.1889ZM19.4389 75.8438L20.3299 75.3897L20.3299 75.3897L19.4389 75.8438ZM17.9119 61.7812V60.7812H17.0548L16.9237 61.6283L17.9119 61.7812ZM34.7088 61.7812L35.7027 61.8917L35.8261 60.7812H34.7088V61.7812ZM35.5966 67.6406L34.7186 68.1195L34.7243 68.1296L35.5966 67.6406ZM39.6449 71.1918L39.241 72.1065L39.6449 71.1918ZM52.4645 71.4403L52.1297 70.498L52.1258 70.4995L52.4645 71.4403ZM56.7614 68.777L56.0393 68.085L56.0318 68.093L56.7614 68.777ZM58.75 64.8707L57.7649 64.6979L57.7628 64.7115L58.75 64.8707ZM58.0753 61.3551L57.2432 61.9098L57.2478 61.9166L57.2524 61.9233L58.0753 61.3551ZM54.6662 58.7628L54.2463 59.6704L54.2514 59.6727L54.6662 58.7628ZM48.4162 56.7741L48.1792 57.7458L48.1926 57.7488L48.4162 56.7741ZM41.1364 54.9986L40.8992 55.9701L40.8994 55.9701L41.1364 54.9986ZM27.4645 47.9673L26.7416 48.6583L26.7443 48.6611L27.4645 47.9673ZM24.1974 34.8636L23.2112 34.6984L23.2105 34.7027L24.1974 34.8636ZM29.8082 23.0028L29.0605 22.3388L29.0579 22.3417L29.8082 23.0028ZM41.2074 15.1193L41.5845 16.0455L41.5869 16.0445L41.2074 15.1193ZM70.6463 15.1548L70.1991 16.0493L70.2057 16.0525L70.6463 15.1548ZM78.9915 23.1804L78.0946 23.6227L78.0983 23.6301L78.9915 23.1804ZM80.483 35.2188V36.2188H81.3358L81.4704 35.3765L80.483 35.2188ZM64.6481 35.2894C64.8536 32.3869 64.0816 29.9867 62.1936 28.2653L60.8461 29.7432C62.1779 30.9575 62.8264 32.7002 62.6531 35.1481L64.6481 35.2894ZM62.1991 28.2703C60.3454 26.555 57.5346 25.8026 53.9915 25.8026V27.8026C57.3138 27.8026 59.522 28.5179 60.8407 29.7382L62.1991 28.2703ZM53.9915 25.8026C51.6371 25.8026 49.5723 26.1085 47.8226 26.7518L48.5127 28.6289C49.9826 28.0885 51.8004 27.8026 53.9915 27.8026V25.8026ZM47.8348 26.7473C46.1008 27.3593 44.6782 28.2474 43.6196 29.4418L45.1162 30.7684C45.9042 29.8795 47.0147 29.1577 48.5004 28.6333L47.8348 26.7473ZM43.6272 29.4333C42.5774 30.5908 41.9124 31.9473 41.6429 33.4834L43.6128 33.8291C43.8168 32.6663 44.3118 31.6555 45.1086 30.7769L43.6272 29.4333ZM41.6473 33.4601C41.4045 34.674 41.4591 35.8241 41.8769 36.8685L43.7339 36.1258C43.4888 35.5131 43.4251 34.7692 43.6084 33.8524L41.6473 33.4601ZM41.8769 36.8685C42.2855 37.8899 42.9892 38.7613 43.9347 39.4906L45.1563 37.9071C44.4445 37.358 43.9882 36.7616 43.7339 36.1258L41.8769 36.8685ZM43.9455 39.4989C44.8898 40.2071 46.0316 40.8049 47.3529 41.3035L48.059 39.4323C46.8709 38.9839 45.9057 38.469 45.1455 37.8989L43.9455 39.4989ZM47.3587 41.3056C48.6862 41.7973 50.1625 42.2235 51.7844 42.5866L52.2213 40.635C50.6709 40.2878 49.2826 39.8854 48.0533 39.4301L47.3587 41.3056ZM51.7712 42.5836L57.7371 44.0041L58.2004 42.0584L52.2345 40.638L51.7712 42.5836ZM57.7483 44.0066C61.1416 44.7736 64.0534 45.7901 66.496 47.0456L67.4103 45.2669C64.7866 43.9182 61.7088 42.8514 58.1892 42.0559L57.7483 44.0066ZM66.5059 47.0507C68.9668 48.2811 70.9271 49.7567 72.4132 51.4647L73.922 50.1518C72.2358 48.2139 70.0531 46.5882 67.4003 45.2618L66.5059 47.0507ZM72.4175 51.4695C73.8976 53.1484 74.9119 55.0769 75.4651 57.2676L77.4042 56.7779C76.7737 54.2811 75.61 52.0665 73.9177 50.1469L72.4175 51.4695ZM75.4651 57.2676C76.0162 59.4497 76.0698 61.9336 75.591 64.738L77.5624 65.0745C78.078 62.0551 78.0369 59.2832 77.4042 56.7779L75.4651 57.2676ZM75.59 64.7435C74.8605 69.1661 73.1238 72.9336 70.3892 76.075L71.8977 77.3881C74.8923 73.9481 76.7777 69.832 77.5634 65.069L75.59 64.7435ZM70.3865 76.0781C67.6673 79.2278 64.0951 81.6604 59.6365 83.3611L60.3493 85.2298C65.0763 83.4267 68.9378 80.8167 71.9004 77.385L70.3865 76.0781ZM59.6349 83.3617C55.2037 85.0608 50.0147 85.9233 44.0483 85.9233V87.9233C50.2031 87.9233 55.6439 87.0339 60.3509 85.2292L59.6349 83.3617ZM44.0483 85.9233C38.083 85.9233 33.0763 85.0255 28.996 83.2703L28.2057 85.1075C32.6008 86.9981 37.8924 87.9233 44.0483 87.9233V85.9233ZM29.0022 83.273C24.9766 81.509 22.108 78.8791 20.3299 75.3897L18.5479 76.2978C20.5578 80.2421 23.797 83.1757 28.1995 85.1048L29.0022 83.273ZM20.3299 75.3897C18.561 71.9183 18.0446 67.4605 18.9002 61.9342L16.9237 61.6283C16.0273 67.4183 16.529 72.3355 18.5479 76.2978L20.3299 75.3897ZM17.9119 62.7812H34.7088V60.7812H17.9119V62.7812ZM33.7149 61.6708C33.4391 64.1529 33.7409 66.3269 34.7187 68.1195L36.4745 67.1618C35.7477 65.8294 35.4576 64.0971 35.7027 61.8917L33.7149 61.6708ZM34.7243 68.1296C35.718 69.9022 37.2434 71.2245 39.241 72.1065L40.0488 70.277C38.4006 69.5492 37.227 68.504 36.4689 67.1516L34.7243 68.1296ZM39.241 72.1065C41.2227 72.9816 43.5697 73.3991 46.25 73.3991V71.3991C43.7693 71.3991 41.7129 71.0117 40.0488 70.277L39.241 72.1065ZM46.25 73.3991C48.7047 73.3991 50.8953 73.0681 52.8032 72.3812L52.1258 70.4995C50.4825 71.091 48.5301 71.3991 46.25 71.3991V73.3991ZM52.7993 72.3826C54.7154 71.7019 56.2945 70.7371 57.4909 69.4609L56.0318 68.093C55.0975 69.0896 53.8121 69.9004 52.1297 70.498L52.7993 72.3826ZM57.4834 69.4689C58.7041 68.1951 59.4662 66.7102 59.7372 65.03L57.7628 64.7115C57.5603 65.9669 56.9967 67.0862 56.0394 68.0851L57.4834 69.4689ZM59.735 65.0435C60.0105 63.473 59.7544 62.0269 58.8982 60.7869L57.2524 61.9233C57.7693 62.672 57.963 63.5696 57.765 64.6979L59.735 65.0435ZM58.9073 60.8004C58.1029 59.5937 56.7841 58.6293 55.081 57.8529L54.2514 59.6727C55.768 60.3641 56.7219 61.1278 57.2432 61.9098L58.9073 60.8004ZM55.0861 57.8552C53.4137 57.0814 51.2571 56.3998 48.6397 55.7995L48.1926 57.7488C50.7363 58.3322 52.7464 58.9764 54.2463 59.6703L55.0861 57.8552ZM48.6532 55.8026L41.3733 54.0271L40.8994 55.9701L48.1792 57.7457L48.6532 55.8026ZM41.3735 54.0271C35.4762 52.5876 31.1132 50.3138 28.1847 47.2736L26.7443 48.6611C30.0184 52.0602 34.77 54.4739 40.8992 55.9701L41.3735 54.0271ZM28.1874 47.2763C25.3811 44.3406 24.321 40.3183 25.1844 35.0246L23.2105 34.7027C22.2746 40.4411 23.3925 45.1547 26.7416 48.6583L28.1874 47.2763ZM25.1837 35.0289C25.911 30.688 27.701 26.907 30.5585 23.6639L29.0579 22.3417C25.9495 25.8695 23.9991 29.9957 23.2112 34.6984L25.1837 35.0289ZM30.5559 23.6669C33.4514 20.4067 37.12 17.8635 41.5845 16.0455L40.8302 14.1932C36.1092 16.1156 32.1784 18.8282 29.0605 22.3388L30.5559 23.6669ZM41.5869 16.0445C46.0704 14.2051 51.0178 13.2784 56.4418 13.2784V11.2784C50.7862 11.2784 45.5774 12.2456 40.8278 14.1942L41.5869 16.0445ZM56.4418 13.2784C61.9678 13.2784 66.5393 14.2194 70.1991 16.0493L71.0935 14.2604C67.0829 12.2551 62.1846 11.2784 56.4418 11.2784V13.2784ZM70.2057 16.0525C73.8905 17.861 76.499 20.3871 78.0946 23.6227L79.8884 22.7381C78.0749 19.0608 75.1199 16.2365 71.0869 14.2571L70.2057 16.0525ZM78.0983 23.6301C79.7136 26.8387 80.2034 30.631 79.4955 35.061L81.4704 35.3765C82.2304 30.6209 81.7257 26.3877 79.8847 22.7307L78.0983 23.6301ZM80.483 34.2188H63.6506V36.2188H80.483V34.2188Z" fill="#147523" mask="url(#path-2-outside-1_7_19)"/>
</g>
<defs>
<clipPath id="clip0_7_19">
<rect width="100" height="100" rx="50" fill="white"/>
</clipPath>
</defs>
</svg>
